<svg xmlns="http://www.w3.org/2000/svg" width="19" height="16" viewBox="0 0 19 16">
  <path id="Forma_1" data-name="Forma 1" d="M1404.476,7207.294a7.7,7.7,0,0,1-2.477.98,3.824,3.824,0,0,0-2.844-1.276,3.971,3.971,0,0,0-3.9,4.04,4.2,4.2,0,0,0,.1.92,10.938,10.938,0,0,1-8.034-4.221,4.128,4.128,0,0,0-.527,2.031,4.079,4.079,0,0,0,1.734,3.362,3.791,3.791,0,0,1-1.765-.507v.051a4.011,4.011,0,0,0,3.126,3.962,3.753,3.753,0,0,1-1.761.069,3.925,3.925,0,0,0,3.64,2.806,7.648,7.648,0,0,1-4.84,1.729,8.007,8.007,0,0,1-.93-.055,10.754,10.754,0,0,0,5.975,1.815c7.169,0,11.09-6.157,11.09-11.5l-.013-.523a8.01,8.01,0,0,0,1.948-2.088,7.576,7.576,0,0,1-2.238.637A4.043,4.043,0,0,0,1404.476,7207.294Z" transform="translate(-1386 -7206.999)" fill="#fff"/>
</svg>
