<svg xmlns="http://www.w3.org/2000/svg" width="28" height="28" viewBox="0 0 28 28">
  <path id="Tracé_2487" data-name="Tracé 2487" d="M14-17.5A3.5,3.5,0,0,0,17.5-21,3.5,3.5,0,0,0,14-24.5,3.5,3.5,0,0,0,10.5-21,3.5,3.5,0,0,0,14-17.5Zm0-5.25A1.752,1.752,0,0,1,15.75-21,1.752,1.752,0,0,1,14-19.25,1.752,1.752,0,0,1,12.25-21,1.754,1.754,0,0,1,14-22.75ZM10.5-7.875l.684,5.467A1.791,1.791,0,0,0,12.917-.875h2.16a1.75,1.75,0,0,0,1.736-1.533L17.5-7.875a1.75,1.75,0,0,0,1.75-1.75V-12.25a3.5,3.5,0,0,0-3.5-3.5h-3.5a3.5,3.5,0,0,0-3.5,3.5v2.625A1.748,1.748,0,0,0,10.5-7.875Zm0-4.375A1.752,1.752,0,0,1,12.25-14h3.5a1.752,1.752,0,0,1,1.75,1.75v2.625H15.955l-.875,7H12.92l-.875-7H10.5ZM21.115-5.5a.87.87,0,0,0-1.023.7.875.875,0,0,0,.7,1.022c3.991.747,5.462,1.912,5.462,2.47C26.25-.273,21.926,1.75,14,1.75S1.75-.273,1.75-1.312c0-.559,1.47-1.724,5.413-2.471a.874.874,0,0,0,.7-1.022.876.876,0,0,0-1.023-.7C4.284-5.02,0-3.834,0-1.312,0,1.848,7.044,3.5,14,3.5S28,1.847,28-1.312C28-3.834,23.718-5.02,21.115-5.5Z" transform="translate(0 24.5)" fill="#fb4e00"/>
</svg>
