<svg xmlns="http://www.w3.org/2000/svg" width="35" height="28" viewBox="0 0 35 28">
  <path id="Tracé_2479" data-name="Tracé 2479" d="M16.412-15.252a2.6,2.6,0,0,0-2.366-.361l-7,2.333a2.621,2.621,0,0,0-1.8,2.49V-2.2A3.312,3.312,0,0,0,3.5-2.625,3.3,3.3,0,0,0,0,.438,3.3,3.3,0,0,0,3.5,3.5,3.3,3.3,0,0,0,7,.438V-5.972l8.75-2.916V-5.7A3.336,3.336,0,0,0,14-6.125a3.3,3.3,0,0,0-3.5,3.063A3.3,3.3,0,0,0,14,0a3.3,3.3,0,0,0,3.5-3.062V-13.125A2.6,2.6,0,0,0,16.412-15.252ZM3.5,1.75c-.949,0-1.75-.6-1.75-1.312S2.551-.875,3.5-.875s1.75.6,1.75,1.313S4.446,1.75,3.5,1.75ZM14-1.75c-.949,0-1.75-.6-1.75-1.312s.8-1.312,1.75-1.312,1.75.6,1.75,1.313S14.946-1.75,14-1.75Zm1.75-8.98L7-7.813V-10.79a.875.875,0,0,1,.6-.831l7-2.332a.861.861,0,0,1,.789.12.86.86,0,0,1,.363.708ZM.9-13.24a.882.882,0,0,0,1.4-.029l2.977-4.307,1.382,1.927a.875.875,0,0,0,.988.32.877.877,0,0,0,.438-1.341L6.7-18.6a1.711,1.711,0,0,0-2.685,0L1.609-15.242l-.381-.489a1.677,1.677,0,0,0-2.642,0l-3.451,4.4a1.5,1.5,0,0,0-.193,1.726,1.773,1.773,0,0,0,1.471.859H2.625A.878.878,0,0,0,3.5-9.625a.878.878,0,0,0-.875-.877l-6,0L-.194-14.64ZM-5.25-5.25H2.625A.878.878,0,0,0,3.5-6.125.878.878,0,0,0,2.625-7H-5.25A1.75,1.75,0,0,1-7-8.75V-21a1.75,1.75,0,0,1,1.75-1.75h17.5A1.75,1.75,0,0,1,14-21v2.625a.878.878,0,0,0,.875.875.878.878,0,0,0,.875-.875V-21a3.5,3.5,0,0,0-3.5-3.5H-5.25A3.5,3.5,0,0,0-8.75-21V-8.75A3.5,3.5,0,0,0-5.25-5.25Zm3.063-14A1.312,1.312,0,0,0-3.5-20.562,1.311,1.311,0,0,0-4.812-19.25,1.311,1.311,0,0,0-3.5-17.937,1.309,1.309,0,0,0-2.187-19.25Zm-8.312,0H-14a3.5,3.5,0,0,0-3.5,3.5V-3.5A3.5,3.5,0,0,0-14,0H-2.625A.878.878,0,0,0-1.75-.875a.878.878,0,0,0-.875-.875H-10.5Zm-1.75,17.5H-14A1.752,1.752,0,0,1-15.75-3.5V-5.25h3.5Zm0-5.25h-3.5v-5.25h3.5Zm0-7h-3.5v-1.75A1.752,1.752,0,0,1-14-17.5h1.75Z" transform="translate(17.5 24.5)" fill="#fb4e00"/>
</svg>
