<svg xmlns="http://www.w3.org/2000/svg" width="21" height="28" viewBox="0 0 21 28">
  <path id="Tracé_2481" data-name="Tracé 2481" d="M3.5-14.437A1.313,1.313,0,0,0,4.813-15.75,1.311,1.311,0,0,0,3.5-17.062,1.313,1.313,0,0,0,2.188-15.75,1.316,1.316,0,0,0,3.5-14.437Zm-7,0A1.313,1.313,0,0,0-2.187-15.75,1.311,1.311,0,0,0-3.5-17.062,1.313,1.313,0,0,0-4.812-15.75,1.316,1.316,0,0,0-3.5-14.437Zm7.645,3.784A5.374,5.374,0,0,1-.005-8.8a5.37,5.37,0,0,1-4.14-1.843.882.882,0,0,0-1.23-.1A.864.864,0,0,0-5.481-9.51,7.183,7.183,0,0,0,0-7.049,7.224,7.224,0,0,0,5.485-9.558.878.878,0,0,0,5.377-10.8.932.932,0,0,0,4.145-10.653ZM0-24.5A10.49,10.49,0,0,0-10.5-14.049c0,4.233,1.475,5.416,9.423,16.937A1.228,1.228,0,0,0,0,3.5a1.3,1.3,0,0,0,1.078-.564C9.023-8.586,10.5-9.767,10.5-14.049A10.491,10.491,0,0,0,0-24.5ZM0,1.416C-7.66-9.658-8.75-10.549-8.75-14A8.76,8.76,0,0,1,0-22.75,8.76,8.76,0,0,1,8.75-14C8.75-10.505,7.689-9.7,0,1.416Z" transform="translate(10.5 24.5)" fill="#fb4e00"/>
</svg>
