<svg xmlns="http://www.w3.org/2000/svg" width="28" height="28" viewBox="0 0 28 28">
  <path id="Tracé_2484" data-name="Tracé 2484" d="M8.865-16.406l-1.934-.28L6.07-18.444a1.406,1.406,0,0,0-2.51,0l-.867,1.757-1.939.28A1.349,1.349,0,0,0,0-16a1.347,1.347,0,0,0-.76-.4l-1.93-.279L-3.6-18.441a1.406,1.406,0,0,0-2.51,0l-.815,1.755-1.938.279a1.407,1.407,0,0,0-.775,2.393l1.4,1.361L-8.569-10.7A1.387,1.387,0,0,0-6.55-9.255l1.735-.9L-3.1-9.27a1.389,1.389,0,0,0,2.04-1.456l-.334-1.935L0-14l1.391,1.346-.338,1.949a1.387,1.387,0,0,0,2.02,1.449l1.742-.9,1.722.889a1.385,1.385,0,0,0,2.033-1.456L8.238-12.66l1.417-1.374A1.4,1.4,0,0,0,8.865-16.406ZM-3.27-13.262l.364,2.126-1.956-.989-1.908.984.364-2.126-1.508-1.51,2.145-.308.954-1.941.96,1.941,2.145.308Zm9.63,0,.364,2.126-1.908-.991-1.907.984.364-2.126-1.563-1.51,2.145-.308.96-1.941.954,1.941,2.145.308Zm.372,6.305A23.883,23.883,0,0,1,0-6.125a23.783,23.783,0,0,1-6.732-.834.872.872,0,0,0-1.132.935C-7.361-2.964-3.309-.875,0-.875s7.355-2.092,7.864-5.1a.878.878,0,0,0-1.132-.982ZM0-2.63a7.906,7.906,0,0,1-5.384-2.2,33.125,33.125,0,0,0,10.773,0A7.91,7.91,0,0,1,0-2.63ZM0-24.5a14,14,0,0,0-14,14A14,14,0,0,0,0,3.5a14,14,0,0,0,14-14A14,14,0,0,0,0-24.5ZM0,1.75A12.265,12.265,0,0,1-12.25-10.5,12.265,12.265,0,0,1,0-22.75,12.265,12.265,0,0,1,12.25-10.5,12.265,12.265,0,0,1,0,1.75Z" transform="translate(14 24.5)" fill="#fb4e00"/>
</svg>
