<svg xmlns="http://www.w3.org/2000/svg" width="35" height="28" viewBox="0 0 35 28">
  <path id="Tracé_2480" data-name="Tracé 2480" d="M-6.125-12.25a1.039,1.039,0,0,0-1.094,1.094,1.094,1.094,0,0,0,1.094,1.094,1.094,1.094,0,0,0,1.094-1.094A1.066,1.066,0,0,0-6.125-12.25Zm.908-7.875H-7.208a2.419,2.419,0,0,0-2.417,2.417.874.874,0,0,0,.875.875.874.874,0,0,0,.875-.875.67.67,0,0,1,.667-.667h1.988a.843.843,0,0,1,.844.842.843.843,0,0,1-.478.76l-1.677.87a.822.822,0,0,0-.47.777V-14a.874.874,0,0,0,.875.875A.876.876,0,0,0-5.25-14v-.6l1.191-.619a2.656,2.656,0,0,0,1.434-2.318A2.6,2.6,0,0,0-5.217-20.125ZM5.25-14.875C5.25-20.191.159-24.5-6.125-24.5S-17.5-20.191-17.5-14.875a8.7,8.7,0,0,0,2.485,5.994,14.369,14.369,0,0,1-2.13,3.193,1.3,1.3,0,0,0-.25,1.4,1.3,1.3,0,0,0,1.189.785A12.617,12.617,0,0,0-9.321-5.642a13.349,13.349,0,0,0,3.2.392C.159-5.25,5.25-9.559,5.25-14.875ZM-6.125-7A11.572,11.572,0,0,1-8.9-7.341l-.741-.184-.64.421a11.186,11.186,0,0,1-4.914,1.8,15.615,15.615,0,0,0,1.763-2.834l.505-1.078-.816-.866a6.939,6.939,0,0,1-2.008-4.8c0-4.342,4.271-7.875,9.625-7.875S3.5-19.217,3.5-14.875-.82-7-6.125-7ZM15.663-.689A9.021,9.021,0,0,0,17.5-6.125c0-5.316-4.7-9.625-10.5-9.625l-.051,0c.024.287.051.577.051.873s-.026.588-.051.88c.019,0,.035,0,.051,0,4.825,0,8.75,3.533,8.75,7.875a7.287,7.287,0,0,1-1.49,4.389l-.715.955L14.173.234A17.044,17.044,0,0,0,15.191,1.7a10.523,10.523,0,0,1-2.97-.771l-.694-.29-.688.3A9.468,9.468,0,0,1,7,1.75a8.613,8.613,0,0,1-8.471-6A14.5,14.5,0,0,1-3.177-3.8,10.321,10.321,0,0,0,7,3.5a11.224,11.224,0,0,0,4.546-.959A11.975,11.975,0,0,0,16.2,3.5a1.3,1.3,0,0,0,.939-2.187A14.94,14.94,0,0,1,15.663-.689ZM3.757-6.016a.874.874,0,0,0,0,1.237L5.8-2.734a.874.874,0,0,0,.619.256.872.872,0,0,0,.617-.256l4.521-4.522a.874.874,0,0,0,0-1.237.875.875,0,0,0-1.237,0l-3.9,3.9L4.991-6.013A.874.874,0,0,0,3.757-6.016Z" transform="translate(17.5 24.5)" fill="#fb4e00"/>
</svg>
