<svg xmlns="http://www.w3.org/2000/svg" width="21" height="12" viewBox="0 0 21 12">
  <path id="Tracé_2478" data-name="Tracé 2478" d="M14.578-14.812a.56.56,0,0,1,.4-.187.56.56,0,0,1,.4.188l5.437,5.437A.445.445,0,0,1,21-9a.445.445,0,0,1-.187.375L15.375-3.187a.56.56,0,0,1-.4.187.56.56,0,0,1-.4-.187l-.328-.328a.445.445,0,0,1-.187-.375.583.583,0,0,1,.187-.422L18.187-8.2H.562a.542.542,0,0,1-.4-.164A.542.542,0,0,1,0-8.766v-.469a.542.542,0,0,1,.164-.4.542.542,0,0,1,.4-.164H18.187L14.25-13.687a.583.583,0,0,1-.187-.422.445.445,0,0,1,.187-.375Z" transform="translate(0 15)" fill="#fb4e00"/>
</svg>
