<svg xmlns="http://www.w3.org/2000/svg" width="28" height="27.996" viewBox="0 0 28 27.996">
  <path id="Tracé_2486" data-name="Tracé 2486" d="M25.151-14a.588.588,0,0,0-.109.007c-2.729.152-7.684.71-11.041,2.6-3.357-1.887-8.312-2.447-11.041-2.6A.708.708,0,0,0,2.85-14,2.782,2.782,0,0,0,0-11.255V-1.57A2.777,2.777,0,0,0,2.646,1.225c1.88.1,6.59.5,9.68,2.051a1.949,1.949,0,0,0,.8.219h1.75a2.361,2.361,0,0,0,.8-.222c3.09-1.552,7.8-1.949,9.68-2.051A2.76,2.76,0,0,0,28-1.52v-9.734A2.78,2.78,0,0,0,25.151-14ZM13.12,1.712h0C9.859.071,5.212-.39,2.734-.52a1.022,1.022,0,0,1-.984-1v-9.734a.825.825,0,0,1,.321-.725,1.447,1.447,0,0,1,.793-.271c2.023.115,7.067.58,10.26,2.373L13.12,1.712ZM26.25-1.52a1.024,1.024,0,0,1-.984,1c-2.475.13-7.12.591-10.385,2.232-.007.007.007,0,0,0L14.875-9.877c3.194-1.794,8.236-2.259,10.254-2.373h.021c.012,0,1.1.027,1.1,1ZM14-14a5.251,5.251,0,0,0,5.25-5.25A5.251,5.251,0,0,0,14-24.5a5.251,5.251,0,0,0-5.25,5.25A5.251,5.251,0,0,0,14-14Zm0-8.75a3.507,3.507,0,0,1,3.5,3.5,3.507,3.507,0,0,1-3.5,3.5,3.509,3.509,0,0,1-3.5-3.5A3.51,3.51,0,0,1,14-22.75Z" transform="translate(0 24.5)" fill="#fb4e00"/>
</svg>
