<svg xmlns="http://www.w3.org/2000/svg" width="28" height="28" viewBox="0 0 28 28">
  <path id="Tracé_2483" data-name="Tracé 2483" d="M13.874-12.365a.865.865,0,0,0-.983-.75.873.873,0,0,0-.75.983A11.97,11.97,0,0,1,12.25-10.5,12.265,12.265,0,0,1,0,1.75,12.265,12.265,0,0,1-12.25-10.5,12.265,12.265,0,0,1,0-22.75a12.361,12.361,0,0,1,1.634.108.869.869,0,0,0,.983-.75.873.873,0,0,0-.75-.983A13.894,13.894,0,0,0,0-24.5a14.013,14.013,0,0,0-14,14A14.013,14.013,0,0,0,0,3.5a14.013,14.013,0,0,0,14-14A13.244,13.244,0,0,0,13.874-12.365ZM0-17.5a.874.874,0,0,0,.875-.875A.876.876,0,0,0,0-19.25,8.762,8.762,0,0,0-8.75-10.5,8.761,8.761,0,0,0,0-1.75,8.76,8.76,0,0,0,8.75-10.5a.874.874,0,0,0-.875-.875A.876.876,0,0,0,7-10.5a7.007,7.007,0,0,1-7,7,7.007,7.007,0,0,1-7-7A7.007,7.007,0,0,1,0-17.5Zm-.618,6.382a.874.874,0,0,0,0,1.237.874.874,0,0,0,1.237,0L5.538-14.8l3.916.783A.9.9,0,0,0,9.626-14a.874.874,0,0,0,.619-.256l3.5-3.5a.876.876,0,0,0,.219-.872.875.875,0,0,0-.666-.6l-3.8-.761-.761-3.8a.874.874,0,0,0-.6-.666.873.873,0,0,0-.872.219l-3.5,3.5a.875.875,0,0,0-.239.79L4.3-16.038ZM9.04-18.3l2.313.463L9.34-15.823l-2.312-.462Zm-1.7-3.551L7.8-19.537,5.789-17.525l-.462-2.312Z" transform="translate(14 24.5)" fill="#fb4e00"/>
</svg>
