<svg xmlns="http://www.w3.org/2000/svg" width="34.738" height="28" viewBox="0 0 34.738 28">
  <path id="Tracé_2485" data-name="Tracé 2485" d="M17.495-7a5.647,5.647,0,0,0,5.638-5.687,5.676,5.676,0,0,0-5.638-5.687,5.647,5.647,0,0,0-5.638,5.688A5.617,5.617,0,0,0,17.495-7Zm0-9.625a3.941,3.941,0,0,1,3.935,3.938A3.944,3.944,0,0,1,17.495-8.75a3.946,3.946,0,0,1-3.938-3.937A3.942,3.942,0,0,1,17.495-16.625ZM27.125-14a4.1,4.1,0,0,0-1.721.381.91.91,0,0,0-.5,1.12.876.876,0,0,0,1.2.486,2.4,2.4,0,0,1,1.026-.237h3.559a2.521,2.521,0,0,1,2.163,1.291.893.893,0,0,0,.769.459.877.877,0,0,0,.749-1.325A4.179,4.179,0,0,0,30.685-14ZM28-15.75a4.375,4.375,0,0,0,4.375-4.375A4.374,4.374,0,0,0,28-24.5a4.375,4.375,0,0,0-4.375,4.375A4.374,4.374,0,0,0,28-15.75Zm0-7a2.628,2.628,0,0,1,2.625,2.625A2.627,2.627,0,0,1,28-17.5a2.627,2.627,0,0,1-2.625-2.625A2.627,2.627,0,0,1,28-22.75ZM34.152-2.778,33.6-3.1a5.458,5.458,0,0,0,0-.8l.521-.3a1.179,1.179,0,0,0,.558-1.379,7.064,7.064,0,0,0-1.536-2.655,1.175,1.175,0,0,0-1.457-.232l-.546.315a5.627,5.627,0,0,0-.691-.4v-.684a1.159,1.159,0,0,0-.917-1.139,6.984,6.984,0,0,0-3.056-.005,1.164,1.164,0,0,0-.937,1.144V-8.6a5.646,5.646,0,0,0-.692.4l-.533-.307a1.18,1.18,0,0,0-1.463.211,7.585,7.585,0,0,0-1.543,2.726,1.162,1.162,0,0,0,.53,1.352l.55.32a5.92,5.92,0,0,0,0,.8l-.522.307a1.161,1.161,0,0,0-.555,1.374,7.065,7.065,0,0,0,1.548,2.678,1.17,1.17,0,0,0,1.439.215l.552-.317a5.563,5.563,0,0,0,.691.4V2.19a1.158,1.158,0,0,0,.913,1.139,12.038,12.038,0,0,0,1.553.171,6.722,6.722,0,0,0,1.5-.167,1.166,1.166,0,0,0,.941-1.144V1.555a5.612,5.612,0,0,0,.691-.4l.53.306a1.165,1.165,0,0,0,1.463-.211,7.1,7.1,0,0,0,1.549-2.679A1.163,1.163,0,0,0,34.152-2.778ZM31.806-4.2a3.844,3.844,0,0,1,0,1.4l-.115.608,1.169.68a5.4,5.4,0,0,1-.71,1.224L30.987-.956l-.471.4a3.861,3.861,0,0,1-1.224.707l-.585.206V1.706a5.482,5.482,0,0,1-1.41,0V.357L26.714.151A3.857,3.857,0,0,1,25.49-.556l-.469-.4-1.169.673a5.273,5.273,0,0,1-.709-1.226l1.156-.68-.108-.6a4.1,4.1,0,0,1,0-1.422l.108-.6-1.16-.677a5.23,5.23,0,0,1,.708-1.226l1.171.673.469-.4a3.852,3.852,0,0,1,1.224-.707l.584-.207V-8.7a5.194,5.194,0,0,1,1.41,0v1.346l.585.206a3.869,3.869,0,0,1,1.224.707l.471.4,1.165-.673a5.353,5.353,0,0,1,.709,1.223l-1.169.681ZM7-15.75a4.375,4.375,0,0,0,4.375-4.375A4.374,4.374,0,0,0,7-24.5a4.375,4.375,0,0,0-4.375,4.375A4.375,4.375,0,0,0,7-15.75Zm0-7a2.628,2.628,0,0,1,2.625,2.625A2.627,2.627,0,0,1,7-17.5a2.626,2.626,0,0,1-2.625-2.625A2.626,2.626,0,0,1,7-22.75ZM21,1.75H8.761A5.821,5.821,0,0,1,14.727-3.5h3.648a.875.875,0,0,0,.875-.875.875.875,0,0,0-.875-.875h-3.6A7.542,7.542,0,0,0,7,2.04,1.506,1.506,0,0,0,8.553,3.5H21a.875.875,0,0,0,0-1.75Zm7-7.875A2.628,2.628,0,0,0,25.375-3.5,2.628,2.628,0,0,0,28-.875,2.628,2.628,0,0,0,30.625-3.5,2.627,2.627,0,0,0,28-6.125Zm0,3.5a.876.876,0,0,1-.875-.875A.876.876,0,0,1,28-4.375a.876.876,0,0,1,.875.875A.877.877,0,0,1,28-2.625ZM8.9-12.015a.876.876,0,0,0,1.165-.415A.874.874,0,0,0,9.653-13.6,4.147,4.147,0,0,0,7.875-14H4.316A4.428,4.428,0,0,0,0-9.477v.727a.874.874,0,0,0,.875.875A.876.876,0,0,0,1.75-8.75v-.727A2.677,2.677,0,0,1,4.316-12.25H7.875A2.453,2.453,0,0,1,8.9-12.015Z" transform="translate(0 24.5)" fill="#fb4e00"/>
</svg>
