<svg xmlns="http://www.w3.org/2000/svg" width="28.006" height="28.005" viewBox="0 0 28.006 28.005">
  <path id="Tracé_2482" data-name="Tracé 2482" d="M13.606-24.1a1.348,1.348,0,0,0-1.34-.342c-1.764.54-5.955,1.839-9.155,3.22a2,2,0,0,0-1.1-1.5,1.67,1.67,0,0,0-1.443.068c-2.365,1.23-8.2,4.437-11.4,7.629a10.874,10.874,0,0,0,0,15.356,10.876,10.876,0,0,0,15.367,0C7.725-2.86,10.932-8.7,12.168-11.066a1.716,1.716,0,0,0,.062-1.443,1.994,1.994,0,0,0-1.5-1.1c1.367-3.179,2.68-7.377,3.22-9.149A1.344,1.344,0,0,0,13.606-24.1ZM8.3-12.5l2.318.622S6.314-3.928,3.3-.914a9.122,9.122,0,0,1-12.884,0,9.132,9.132,0,0,1,0-12.884c3.015-3.008,10.9-7.334,10.9-7.334L2-18.781a71.746,71.746,0,0,1,10.041-3.753A78.659,78.659,0,0,1,8.3-12.5ZM-1.876-15a.84.84,0,0,0-.752-.465A.856.856,0,0,0-3.38-15l-1.709,3.473-3.82.563a.849.849,0,0,0-.676.568.842.842,0,0,0,.219.861l2.762,2.7-.656,3.808a.831.831,0,0,0,.191.684.821.821,0,0,0,.635.3.772.772,0,0,0,.39-.1l3.419-1.79L.8-2.14A.824.824,0,0,0,1.679-2.2a.842.842,0,0,0,.328-.82L1.358-6.83l2.762-2.7a.825.825,0,0,0,.212-.861.841.841,0,0,0-.677-.568l-3.867-.563ZM-.52-7.448l.492,2.9-2.6-1.367L-5.216-4.55l.5-2.9L-6.822-9.5l2.849-.424,1.3-2.632,1.3,2.632,2.9.424Z" transform="translate(14.002 24.5)" fill="#fb4e00"/>
</svg>
